<?xml version="1.0" standalone="no"?>
<!DOCTYPE svg PUBLIC "-//W3C//DTD SVG 20010904//EN"
 "http://www.w3.org/TR/2001/REC-SVG-20010904/DTD/svg10.dtd">
<svg version="1.0" xmlns="http://www.w3.org/2000/svg"
 width="200.000000pt" height="200.000000pt" viewBox="0 0 200.000000 200.000000"
 preserveAspectRatio="xMidYMid meet">

<g transform="translate(0.000000,200.000000) scale(0.100000,-0.100000)"
fill="#000000" stroke="none">
<path d="M731 1648 c-70 -20 -111 -66 -111 -124 0 -41 83 -117 151 -139 30 -9
60 -19 68 -21 10 -3 3 -17 -26 -47 -51 -53 -72 -95 -80 -156 -6 -55 17 -118
62 -164 l26 -28 -51 -46 c-76 -68 -103 -128 -108 -239 -4 -77 -1 -96 16 -131
63 -122 115 -143 377 -152 117 -4 198 -12 212 -19 56 -31 68 -95 28 -154 -51
-75 -163 -98 -278 -58 -68 24 -110 25 -131 4 -20 -20 -20 -38 0 -58 40 -41
106 -50 210 -32 193 34 284 121 284 271 0 75 -33 133 -92 164 -44 21 -65 24
-240 31 -109 4 -206 13 -223 19 -66 27 -105 85 -105 156 0 75 46 155 113 195
27 17 31 17 88 -1 126 -39 354 -35 401 8 28 25 23 69 -9 90 -23 15 -48 18
-158 17 -71 -1 -158 -7 -192 -13 -76 -14 -109 -1 -144 56 -45 72 -21 181 54
251 23 22 27 23 91 11 37 -6 116 -10 176 -7 120 4 162 21 168 70 10 84 -190
97 -345 21 l-72 -35 -48 16 c-139 48 -154 178 -23 207 23 5 57 7 76 3 29 -5
34 -4 34 13 0 17 -9 21 -52 27 -69 8 -105 6 -147 -6z"/>
</g>
</svg>
